<svg width="18" height="20" viewBox="0 0 18 20" fill="none" xmlns="http://www.w3.org/2000/svg">
<path d="M15.3353 12.6182C15.0535 12.168 14.904 11.6476 14.9037 11.1165V7.18383C14.9037 5.56146 14.2592 4.00553 13.112 2.85834C11.9648 1.71115 10.4089 1.06667 8.78654 1.06667C7.16417 1.06667 5.60824 1.71115 4.46105 2.85834C3.31386 4.00553 2.66937 5.56146 2.66937 7.18383V11.1146C2.66945 11.6464 2.51988 12.1674 2.23776 12.6182L1.21021 14.2615C1.12086 14.4045 1.0714 14.5687 1.06698 14.7373C1.06255 14.9058 1.10332 15.0724 1.18504 15.2199C1.26677 15.3673 1.38648 15.4902 1.53174 15.5758C1.67699 15.6614 1.84251 15.7065 2.0111 15.7065H15.562C15.7306 15.7065 15.8961 15.6614 16.0413 15.5758C16.1866 15.4902 16.3063 15.3673 16.388 15.2199C16.4698 15.0724 16.5105 14.9058 16.5061 14.7373C16.5017 14.5687 16.4522 14.4045 16.3629 14.2615L15.3353 12.6182Z" stroke="black" stroke-width="1.5" stroke-linecap="round" stroke-linejoin="round"/>
<path d="M6.89771 18.5398H10.6755" stroke="black" stroke-width="1.5" stroke-linecap="round"/>
</svg>
