<svg width="17" height="17" viewBox="0 0 17 17" fill="none" xmlns="http://www.w3.org/2000/svg">
<path d="M14.5 9.83333H12.5C12.3231 9.83333 12.1536 9.7631 12.0286 9.63807C11.9035 9.51305 11.8333 9.34348 11.8333 9.16667V3.16667C11.8333 2.98986 11.9035 2.82029 12.0286 2.69526C12.1536 2.57024 12.3231 2.5 12.5 2.5H14.5C14.6768 2.5 14.8463 2.57024 14.9714 2.69526C15.0964 2.82029 15.1666 2.98986 15.1666 3.16667V9.16667C15.1666 9.34348 15.0964 9.51305 14.9714 9.63807C14.8463 9.7631 14.6768 9.83333 14.5 9.83333ZM14.5 9.16667V3.16667H12.5V9.16667H14.5ZM4.01996 3.81333L2.01996 7.14667C1.89996 7.34667 1.83329 7.58667 1.83329 7.83333V8.5C1.83329 8.85362 1.97377 9.19276 2.22382 9.44281C2.47387 9.69286 2.813 9.83333 3.16663 9.83333H6.90663L5.93329 13.46V13.4733C5.90173 13.5857 5.90117 13.7046 5.93169 13.8172C5.96221 13.9299 6.02266 14.0322 6.10663 14.1133L10.1066 10.1067C10.3533 9.86667 10.5 9.53333 10.5 9.16667V4.5C10.5 4.14638 10.3595 3.80724 10.1094 3.55719C9.85939 3.30714 9.52025 3.16667 9.16663 3.16667H5.16663C4.67996 3.16667 4.25329 3.42667 4.01996 3.81333ZM1.16663 7.83333C1.16663 7.44 1.27996 7.06667 1.47996 6.76L3.41996 3.53333C3.75996 2.91333 4.41329 2.5 5.16663 2.5H9.16663C9.69706 2.5 10.2058 2.71071 10.5808 3.08579C10.9559 3.46086 11.1666 3.96957 11.1666 4.5V9.16667C11.1666 9.72 10.94 10.22 10.58 10.58L6.10663 15.06L5.63329 14.5867C5.27996 14.2333 5.16663 13.7267 5.29329 13.2733L6.03996 10.5H3.16663C2.63619 10.5 2.12748 10.2893 1.75241 9.91421C1.37734 9.53914 1.16663 9.03043 1.16663 8.5V7.83333Z" fill="#9CA3AF"/>
</svg>
