<svg width="17" height="17" viewBox="0 0 17 17" fill="none" xmlns="http://www.w3.org/2000/svg">
<path d="M1.83329 7.16667H3.83329C4.0101 7.16667 4.17967 7.23691 4.3047 7.36193C4.42972 7.48696 4.49996 7.65653 4.49996 7.83334V13.8333C4.49996 14.0101 4.42972 14.1797 4.3047 14.3047C4.17967 14.4298 4.0101 14.5 3.83329 14.5H1.83329C1.65648 14.5 1.48691 14.4298 1.36189 14.3047C1.23686 14.1797 1.16663 14.0101 1.16663 13.8333V7.83334C1.16663 7.65653 1.23686 7.48696 1.36189 7.36193C1.48691 7.23691 1.65648 7.16667 1.83329 7.16667ZM1.83329 7.83334V13.8333H3.83329V7.83334H1.83329ZM12.3133 13.1867L14.3133 9.85334C14.4333 9.65334 14.5 9.41334 14.5 9.16667V8.5C14.5 8.14638 14.3595 7.80724 14.1094 7.55719C13.8594 7.30715 13.5202 7.16667 13.1666 7.16667H9.42663L10.4 3.54V3.52667C10.4315 3.41428 10.4321 3.29544 10.4016 3.18276C10.371 3.07008 10.3106 2.96777 10.2266 2.88667L6.22663 6.89334C5.97996 7.13334 5.83329 7.46667 5.83329 7.83334V12.5C5.83329 12.8536 5.97377 13.1928 6.22382 13.4428C6.47387 13.6929 6.813 13.8333 7.16663 13.8333H11.1666C11.6533 13.8333 12.08 13.5733 12.3133 13.1867ZM15.1666 9.16667C15.1666 9.56 15.0533 9.93334 14.8533 10.24L12.9133 13.4667C12.5733 14.0867 11.92 14.5 11.1666 14.5H7.16663C6.63619 14.5 6.12749 14.2893 5.75241 13.9142C5.37734 13.5391 5.16663 13.0304 5.16663 12.5V7.83334C5.16663 7.28 5.39329 6.78 5.75329 6.42L10.2266 1.94L10.7 2.41334C11.0533 2.76667 11.1666 3.27334 11.04 3.72667L10.2933 6.5H13.1666C13.6971 6.5 14.2058 6.71072 14.5808 7.08579C14.9559 7.46086 15.1666 7.96957 15.1666 8.5V9.16667Z" fill="#9CA3AF"/>
</svg>
