<svg width="24" height="24" viewBox="0 0 24 24" fill="none" xmlns="http://www.w3.org/2000/svg">
<path d="M6.61899 13.59L1.44399 8.427C-0.481006 6.488 -0.481006 3.364 1.44399 1.438L10.11 10.08L6.61899 13.59ZM13.17 13.17L21.68 21.66L19.92 23.4L11.44 14.92L2.93799 23.4L1.19699 21.66L13.12 9.739L12.87 9.467C12.6414 9.23936 12.46 8.96883 12.3363 8.67092C12.2125 8.37301 12.1488 8.05359 12.1488 7.731C12.1488 7.4084 12.2125 7.08899 12.3363 6.79108C12.46 6.49317 12.6414 6.22263 12.87 5.995L18.23 0.599998L19.37 1.735L15.38 5.759L16.56 6.92L20.55 2.908L21.7 4.044L17.69 8.044L18.84 9.233L22.87 5.216L24 6.377L18.6 11.73C17.65 12.69 16.09 12.69 15.14 11.73L14.87 11.48L13.17 13.17Z" fill="black"/>
</svg>
