<svg width="22" height="22" viewBox="0 0 22 22" fill="none" xmlns="http://www.w3.org/2000/svg">
<path d="M13.2917 5.95833L8.70833 9.16667M13.2917 16.0417L8.70833 12.8333M8.70833 11C8.70833 11.6078 8.46689 12.1907 8.03712 12.6205C7.60735 13.0502 7.02445 13.2917 6.41667 13.2917C5.80888 13.2917 5.22598 13.0502 4.79621 12.6205C4.36644 12.1907 4.125 11.6078 4.125 11C4.125 10.3922 4.36644 9.80932 4.79621 9.37955C5.22598 8.94978 5.80888 8.70833 6.41667 8.70833C7.02445 8.70833 7.60735 8.94978 8.03712 9.37955C8.46689 9.80932 8.70833 10.3922 8.70833 11ZM17.875 16.9583C17.875 17.5661 17.6336 18.149 17.2038 18.5788C16.774 19.0086 16.1911 19.25 15.5833 19.25C14.9755 19.25 14.3927 19.0086 13.9629 18.5788C13.5331 18.149 13.2917 17.5661 13.2917 16.9583C13.2917 16.3505 13.5331 15.7677 13.9629 15.3379C14.3927 14.9081 14.9755 14.6667 15.5833 14.6667C16.1911 14.6667 16.774 14.9081 17.2038 15.3379C17.6336 15.7677 17.875 16.3505 17.875 16.9583ZM17.875 5.04167C17.875 5.64945 17.6336 6.23235 17.2038 6.66212C16.774 7.09189 16.1911 7.33333 15.5833 7.33333C14.9755 7.33333 14.3927 7.09189 13.9629 6.66212C13.5331 6.23235 13.2917 5.64945 13.2917 5.04167C13.2917 4.43388 13.5331 3.85098 13.9629 3.42121C14.3927 2.99144 14.9755 2.75 15.5833 2.75C16.1911 2.75 16.774 2.99144 17.2038 3.42121C17.6336 3.85098 17.875 4.43388 17.875 5.04167Z" stroke="black" stroke-width="1.5" stroke-linecap="round" stroke-linejoin="round"/>
</svg>
